<svg width="23" height="28" viewBox="0 0 23 28" fill="none" xmlns="http://www.w3.org/2000/svg">
<path d="M5.65694 27.4429H16.5685C19.5691 27.4429 22.0242 24.9878 22.0242 21.9871V6.98377C22.0242 4.25589 20.1147 2.07358 17.5232 1.6644C16.9776 0.709639 16.0229 0.164062 14.9317 0.164062H7.29367C6.20251 0.164062 5.24775 0.709639 4.70218 1.6644C2.11069 2.07358 0.201172 4.25589 0.201172 6.98377V21.9871C0.201172 24.9878 2.65627 27.4429 5.65694 27.4429ZM7.02088 3.02834C7.02088 3.02834 7.15727 2.89194 7.29367 2.89194H15.0681L15.2045 3.02834V3.9831C15.2045 4.11949 15.0681 4.25589 14.9317 4.25589H7.29367C7.15727 4.25589 7.02088 4.11949 7.02088 3.9831V3.02834ZM2.92905 6.98377C2.92905 5.89261 3.47463 5.07425 4.29299 4.52867V4.66507C4.29299 4.80146 4.42939 4.93786 4.42939 5.07425C4.42939 5.07425 4.42939 5.21064 4.56578 5.21064C4.56578 5.34704 4.70218 5.48343 4.70218 5.48343L4.83857 5.61983C4.83857 5.75622 4.97497 5.75622 5.11136 5.89261L5.24775 6.02901L5.52054 6.3018L5.65694 6.43819C5.79333 6.43819 5.79333 6.57458 5.92972 6.57458C5.92972 6.57458 6.06612 6.57459 6.06612 6.71098C6.20251 6.71098 6.33891 6.84737 6.4753 6.84737H6.61169C6.88448 6.98377 7.02088 6.98377 7.29367 6.98377H15.7501C15.8865 6.98377 16.0229 6.98377 16.1593 6.84737C16.1593 6.84737 16.2957 6.84737 16.2957 6.71098C16.4321 6.71098 16.4321 6.57458 16.5685 6.57458L16.7049 6.43819C16.8413 6.43819 16.8413 6.3018 16.9776 6.1654L17.114 6.02901L17.3868 5.75622L17.5232 5.61983C17.5232 5.48343 17.6596 5.48343 17.6596 5.34704C17.6596 5.34704 17.6596 5.21064 17.796 5.21064C17.796 5.07425 17.9324 4.93786 17.9324 4.80146V4.66507C18.7508 5.07425 19.2963 6.02901 19.2963 7.12016V22.1235C19.2963 23.6238 18.0688 24.8514 16.5685 24.8514H5.65694C4.1566 24.8514 2.92905 23.6238 2.92905 22.1235V6.98377Z" fill="#7B1984"/>
</svg>
